<svg xmlns="http://www.w3.org/2000/svg" viewBox="0 0 24 24" width="24" height="24" fill="none" stroke="#fff" stroke-width="1.5" stroke-linecap="round" stroke-linejoin="round">
  <!-- Discord gamepad/chat icon -->
  <path d="M9.09 9a3 3 0 0 1 5.83 0"/>
  <path d="M8.5 17h7"/>
  <path d="M20.27 7.73a19.37 19.37 0 0 0-4.77-1.48A14.24 14.24 0 0 0 14 8.44a11.38 11.38 0 0 0-4 0 14.24 14.24 0 0 0-1.5-2.19A19.37 19.37 0 0 0 3.73 7.73 20.28 20.28 0 0 0 2 18.33 19.55 19.55 0 0 0 7.82 21a14.79 14.79 0 0 0 1.3-2.11 12.55 12.55 0 0 1-2.06-.99l.5-.38a13.56 13.56 0 0 0 8.88 0l.5.38a12.55 12.55 0 0 1-2.06.99A14.79 14.79 0 0 0 16.18 21 19.55 19.55 0 0 0 22 18.33 20.28 20.28 0 0 0 20.27 7.73z"/>
  <circle cx="9" cy="13" r="1"/>
  <circle cx="15" cy="13" r="1"/>
</svg>
